<?xml version="1.0" standalone="no"?>
<!DOCTYPE svg PUBLIC "-//W3C//DTD SVG 20010904//EN"
 "http://www.w3.org/TR/2001/REC-SVG-20010904/DTD/svg10.dtd">
<svg version="1.0" xmlns="http://www.w3.org/2000/svg"
 width="260.000000pt" height="260.000000pt" viewBox="0 0 260.000000 260.000000"
 preserveAspectRatio="xMidYMid meet">
<metadata>
Created by potrace 1.11, written by Peter Selinger 2001-2013
</metadata>
<g transform="translate(0.000000,260.000000) scale(0.100000,-0.100000)"
fill="#000000" stroke="none">
<path d="M1055 2580 c-473 -95 -856 -435 -998 -886 -79 -252 -76 -558 7 -807
132 -392 452 -707 842 -830 252 -79 558 -76 807 7 392 132 707 452 830 842 79
252 76 558 -7 807 -132 392 -452 707 -842 830 -187 59 -454 74 -639 37z m-70
-745 c138 -36 205 -111 213 -240 4 -67 2 -81 -23 -131 -21 -43 -39 -64 -77
-87 l-49 -31 44 -23 c96 -49 146 -147 133 -261 -18 -151 -115 -239 -287 -262
-41 -5 -161 -10 -266 -10 l-193 0 0 530 0 530 223 0 c168 0 238 -4 282 -15z
m1014 -460 c98 -258 188 -496 199 -527 l22 -58 -43 0 -43 0 -55 148 -54 147
-247 3 -246 2 -16 -42 c-9 -24 -33 -90 -54 -148 l-39 -105 -41 -3 c-23 -2 -42
-1 -42 2 0 8 389 1037 396 1048 3 5 24 8 46 6 l40 -3 177 -470z"/>
<path d="M650 1555 l0 -155 100 0 c124 0 188 13 229 48 41 34 56 94 40 156
-21 85 -70 106 -245 106 l-124 0 0 -155z"/>
<path d="M658 1274 c-5 -4 -8 -84 -8 -177 l0 -169 138 4 c151 4 196 17 236 72
30 40 30 162 0 203 -42 56 -75 66 -223 71 -75 2 -139 1 -143 -4z"/>
<path d="M1670 1468 c-57 -156 -105 -289 -108 -295 -3 -10 43 -13 212 -13 129
0 216 4 216 9 0 13 -202 564 -210 574 -3 4 -53 -120 -110 -275z"/>
</g>
</svg>
