<svg width="37" height="32" viewBox="0 0 37 32" fill="none" xmlns="http://www.w3.org/2000/svg">
<path d="M8.708 26.252C7.644 26.252 6.58 26.2147 5.516 26.14C4.47067 26.084 3.37867 25.9347 2.24 25.692V6.876C3.136 6.708 4.116 6.58667 5.18 6.512C6.244 6.41867 7.23333 6.372 8.148 6.372C9.38 6.372 10.5093 6.46533 11.536 6.652C12.5813 6.82 13.4773 7.11867 14.224 7.548C14.9707 7.97733 15.5493 8.54667 15.96 9.256C16.3893 9.94667 16.604 10.8053 16.604 11.832C16.604 13.3813 15.8573 14.604 14.364 15.5C15.596 15.9667 16.436 16.6013 16.884 17.404C17.332 18.2067 17.556 19.112 17.556 20.12C17.556 22.1547 16.8093 23.6853 15.316 24.712C13.8413 25.7387 11.6387 26.252 8.708 26.252ZM6.496 17.544V22.556C6.81333 22.5933 7.15867 22.6213 7.532 22.64C7.90533 22.6587 8.316 22.668 8.764 22.668C10.0707 22.668 11.1253 22.4813 11.928 22.108C12.7307 21.7347 13.132 21.044 13.132 20.036C13.132 19.14 12.796 18.5053 12.124 18.132C11.452 17.74 10.4907 17.544 9.24 17.544H6.496ZM6.496 14.212H8.624C9.968 14.212 10.9293 14.044 11.508 13.708C12.0867 13.3533 12.376 12.7933 12.376 12.028C12.376 11.244 12.0773 10.6933 11.48 10.376C10.8827 10.0587 10.0053 9.9 8.848 9.9C8.47467 9.9 8.07333 9.90933 7.644 9.928C7.21467 9.928 6.832 9.94667 6.496 9.984V14.212Z" fill="#279AF1"/>
<path d="M34.568 26C34.2133 25.048 33.8773 24.1333 33.56 23.256C33.2427 22.3787 32.9347 21.52 32.636 20.68H23.2C22.8827 21.52 22.5653 22.3787 22.248 23.256C21.9307 24.1333 21.604 25.048 21.268 26H19.28C20.0267 23.984 20.7267 22.108 21.38 20.372C22.0333 18.6173 22.668 16.9653 23.284 15.416C23.9187 13.848 24.544 12.3453 25.16 10.908C25.776 9.47067 26.4293 8.03333 27.12 6.596H28.8C29.4907 8.03333 30.144 9.47067 30.76 10.908C31.376 12.3453 31.992 13.848 32.608 15.416C33.2427 16.9653 33.8867 18.6173 34.54 20.372C35.1933 22.108 35.9027 23.984 36.668 26H34.568ZM27.904 8.78C27.1947 10.3853 26.504 12.0187 25.832 13.68C25.1787 15.3413 24.4973 17.1333 23.788 19.056H32.048C31.3387 17.1333 30.648 15.3413 29.976 13.68C29.304 12.0187 28.6133 10.3853 27.904 8.78Z" fill="#279AF1"/>
</svg>
