<svg width="210" height="32" viewBox="0 0 210 32" fill="none" xmlns="http://www.w3.org/2000/svg">
<path d="M8.708 26.252C7.644 26.252 6.58 26.2147 5.516 26.14C4.47067 26.084 3.37867 25.9347 2.24 25.692V6.876C3.136 6.708 4.116 6.58667 5.18 6.512C6.244 6.41867 7.23333 6.372 8.148 6.372C9.38 6.372 10.5093 6.46533 11.536 6.652C12.5813 6.82 13.4773 7.11867 14.224 7.548C14.9707 7.97733 15.5493 8.54667 15.96 9.256C16.3893 9.94667 16.604 10.8053 16.604 11.832C16.604 13.3813 15.8573 14.604 14.364 15.5C15.596 15.9667 16.436 16.6013 16.884 17.404C17.332 18.2067 17.556 19.112 17.556 20.12C17.556 22.1547 16.8093 23.6853 15.316 24.712C13.8413 25.7387 11.6387 26.252 8.708 26.252ZM6.496 17.544V22.556C6.81333 22.5933 7.15867 22.6213 7.532 22.64C7.90533 22.6587 8.316 22.668 8.764 22.668C10.0707 22.668 11.1253 22.4813 11.928 22.108C12.7307 21.7347 13.132 21.044 13.132 20.036C13.132 19.14 12.796 18.5053 12.124 18.132C11.452 17.74 10.4907 17.544 9.24 17.544H6.496ZM6.496 14.212H8.624C9.968 14.212 10.9293 14.044 11.508 13.708C12.0867 13.3533 12.376 12.7933 12.376 12.028C12.376 11.244 12.0773 10.6933 11.48 10.376C10.8827 10.0587 10.0053 9.9 8.848 9.9C8.47467 9.9 8.07333 9.90933 7.644 9.928C7.21467 9.928 6.832 9.94667 6.496 9.984V14.212ZM34.5485 18.608C34.5485 19.7653 34.3805 20.8293 34.0445 21.8C33.7085 22.752 33.2232 23.5733 32.5885 24.264C31.9538 24.936 31.1885 25.4587 30.2925 25.832C29.4152 26.2053 28.4258 26.392 27.3245 26.392C26.2418 26.392 25.2525 26.2053 24.3565 25.832C23.4792 25.4587 22.7232 24.936 22.0885 24.264C21.4538 23.5733 20.9592 22.752 20.6045 21.8C20.2498 20.8293 20.0725 19.7653 20.0725 18.608C20.0725 17.4507 20.2498 16.396 20.6045 15.444C20.9778 14.492 21.4818 13.68 22.1165 13.008C22.7698 12.336 23.5352 11.8133 24.4125 11.44C25.3085 11.0667 26.2792 10.88 27.3245 10.88C28.3885 10.88 29.3592 11.0667 30.2365 11.44C31.1325 11.8133 31.8978 12.336 32.5325 13.008C33.1672 13.68 33.6618 14.492 34.0165 15.444C34.3712 16.396 34.5485 17.4507 34.5485 18.608ZM30.2925 18.608C30.2925 17.32 30.0312 16.312 29.5085 15.584C29.0045 14.8373 28.2765 14.464 27.3245 14.464C26.3725 14.464 25.6352 14.8373 25.1125 15.584C24.5898 16.312 24.3285 17.32 24.3285 18.608C24.3285 19.896 24.5898 20.9227 25.1125 21.688C25.6352 22.4347 26.3725 22.808 27.3245 22.808C28.2765 22.808 29.0045 22.4347 29.5085 21.688C30.0312 20.9227 30.2925 19.896 30.2925 18.608ZM46.6563 14.968C46.283 14.8747 45.8443 14.7813 45.3403 14.688C44.8363 14.576 44.295 14.52 43.7163 14.52C43.455 14.52 43.1376 14.548 42.7643 14.604C42.4096 14.6413 42.139 14.688 41.9523 14.744V26H37.7803V12.056C38.527 11.7947 39.4043 11.552 40.4123 11.328C41.439 11.0853 42.5776 10.964 43.8283 10.964C44.0523 10.964 44.323 10.9827 44.6403 11.02C44.9576 11.0387 45.275 11.076 45.5923 11.132C45.9096 11.1693 46.227 11.2253 46.5443 11.3C46.8616 11.356 47.1323 11.4307 47.3563 11.524L46.6563 14.968ZM49.4528 7.604L53.6248 6.932V11.272H58.6368V14.744H53.6248V19.924C53.6248 20.8013 53.7741 21.5013 54.0728 22.024C54.3901 22.5467 55.0155 22.808 55.9488 22.808C56.3968 22.808 56.8541 22.7707 57.3208 22.696C57.8061 22.6027 58.2448 22.4813 58.6368 22.332L59.2248 25.58C58.7208 25.7853 58.1608 25.9627 57.5448 26.112C56.9288 26.2613 56.1728 26.336 55.2768 26.336C54.1381 26.336 53.1955 26.1867 52.4488 25.888C51.7021 25.5707 51.1048 25.1413 50.6568 24.6C50.2088 24.04 49.8915 23.368 49.7048 22.584C49.5368 21.8 49.4528 20.932 49.4528 19.98V7.604ZM75.2633 18.608C75.2633 19.7653 75.0953 20.8293 74.7593 21.8C74.4233 22.752 73.938 23.5733 73.3033 24.264C72.6687 24.936 71.9033 25.4587 71.0073 25.832C70.13 26.2053 69.1407 26.392 68.0393 26.392C66.9567 26.392 65.9673 26.2053 65.0713 25.832C64.194 25.4587 63.438 24.936 62.8033 24.264C62.1687 23.5733 61.674 22.752 61.3193 21.8C60.9647 20.8293 60.7873 19.7653 60.7873 18.608C60.7873 17.4507 60.9647 16.396 61.3193 15.444C61.6927 14.492 62.1967 13.68 62.8313 13.008C63.4847 12.336 64.25 11.8133 65.1273 11.44C66.0233 11.0667 66.994 10.88 68.0393 10.88C69.1033 10.88 70.074 11.0667 70.9513 11.44C71.8473 11.8133 72.6127 12.336 73.2473 13.008C73.882 13.68 74.3767 14.492 74.7313 15.444C75.086 16.396 75.2633 17.4507 75.2633 18.608ZM71.0073 18.608C71.0073 17.32 70.746 16.312 70.2233 15.584C69.7193 14.8373 68.9913 14.464 68.0393 14.464C67.0873 14.464 66.35 14.8373 65.8273 15.584C65.3047 16.312 65.0433 17.32 65.0433 18.608C65.0433 19.896 65.3047 20.9227 65.8273 21.688C66.35 22.4347 67.0873 22.808 68.0393 22.808C68.9913 22.808 69.7193 22.4347 70.2233 21.688C70.746 20.9227 71.0073 19.896 71.0073 18.608ZM84.3752 26.28C83.1618 26.2613 82.1725 26.1307 81.4072 25.888C80.6605 25.6453 80.0632 25.3093 79.6152 24.88C79.1858 24.432 78.8872 23.9 78.7192 23.284C78.5698 22.6493 78.4952 21.94 78.4952 21.156V4.944L82.6672 4.272V20.316C82.6672 20.6893 82.6952 21.0253 82.7512 21.324C82.8072 21.6227 82.9098 21.8747 83.0592 22.08C83.2272 22.2853 83.4605 22.4533 83.7592 22.584C84.0578 22.7147 84.4592 22.7987 84.9632 22.836L84.3752 26.28ZM101.131 18.608C101.131 19.7653 100.963 20.8293 100.627 21.8C100.291 22.752 99.8052 23.5733 99.1705 24.264C98.5359 24.936 97.7705 25.4587 96.8745 25.832C95.9972 26.2053 95.0079 26.392 93.9065 26.392C92.8239 26.392 91.8345 26.2053 90.9385 25.832C90.0612 25.4587 89.3052 24.936 88.6705 24.264C88.0359 23.5733 87.5412 22.752 87.1865 21.8C86.8319 20.8293 86.6545 19.7653 86.6545 18.608C86.6545 17.4507 86.8319 16.396 87.1865 15.444C87.5599 14.492 88.0639 13.68 88.6985 13.008C89.3519 12.336 90.1172 11.8133 90.9945 11.44C91.8905 11.0667 92.8612 10.88 93.9065 10.88C94.9705 10.88 95.9412 11.0667 96.8185 11.44C97.7145 11.8133 98.4799 12.336 99.1145 13.008C99.7492 13.68 100.244 14.492 100.599 15.444C100.953 16.396 101.131 17.4507 101.131 18.608ZM96.8745 18.608C96.8745 17.32 96.6132 16.312 96.0905 15.584C95.5865 14.8373 94.8585 14.464 93.9065 14.464C92.9545 14.464 92.2172 14.8373 91.6945 15.584C91.1719 16.312 90.9105 17.32 90.9105 18.608C90.9105 19.896 91.1719 20.9227 91.6945 21.688C92.2172 22.4347 92.9545 22.808 93.9065 22.808C94.8585 22.808 95.5865 22.4347 96.0905 21.688C96.6132 20.9227 96.8745 19.896 96.8745 18.608ZM104.222 7.604L108.394 6.932V11.272H113.406V14.744H108.394V19.924C108.394 20.8013 108.544 21.5013 108.842 22.024C109.16 22.5467 109.785 22.808 110.718 22.808C111.166 22.808 111.624 22.7707 112.09 22.696C112.576 22.6027 113.014 22.4813 113.406 22.332L113.994 25.58C113.49 25.7853 112.93 25.9627 112.314 26.112C111.698 26.2613 110.942 26.336 110.046 26.336C108.908 26.336 107.965 26.1867 107.218 25.888C106.472 25.5707 105.874 25.1413 105.426 24.6C104.978 24.04 104.661 23.368 104.474 22.584C104.306 21.8 104.222 20.932 104.222 19.98V7.604ZM116.664 7.604L120.836 6.932V11.272H125.848V14.744H120.836V19.924C120.836 20.8013 120.985 21.5013 121.284 22.024C121.601 22.5467 122.226 22.808 123.16 22.808C123.608 22.808 124.065 22.7707 124.532 22.696C125.017 22.6027 125.456 22.4813 125.848 22.332L126.436 25.58C125.932 25.7853 125.372 25.9627 124.756 26.112C124.14 26.2613 123.384 26.336 122.488 26.336C121.349 26.336 120.406 26.1867 119.66 25.888C118.913 25.5707 118.316 25.1413 117.868 24.6C117.42 24.04 117.102 23.368 116.916 22.584C116.748 21.8 116.664 20.932 116.664 19.98V7.604ZM133.417 26H129.245V11.272H133.417V26ZM133.809 7.016C133.809 7.78133 133.557 8.388 133.053 8.836C132.568 9.26533 131.989 9.48 131.317 9.48C130.645 9.48 130.057 9.26533 129.553 8.836C129.068 8.388 128.825 7.78133 128.825 7.016C128.825 6.25067 129.068 5.65333 129.553 5.224C130.057 4.776 130.645 4.552 131.317 4.552C131.989 4.552 132.568 4.776 133.053 5.224C133.557 5.65333 133.809 6.25067 133.809 7.016Z" fill="#279AF1"/>
<path d="M151.568 26C151.213 25.048 150.877 24.1333 150.56 23.256C150.243 22.3787 149.935 21.52 149.636 20.68H140.2C139.883 21.52 139.565 22.3787 139.248 23.256C138.931 24.1333 138.604 25.048 138.268 26H136.28C137.027 23.984 137.727 22.108 138.38 20.372C139.033 18.6173 139.668 16.9653 140.284 15.416C140.919 13.848 141.544 12.3453 142.16 10.908C142.776 9.47067 143.429 8.03333 144.12 6.596H145.8C146.491 8.03333 147.144 9.47067 147.76 10.908C148.376 12.3453 148.992 13.848 149.608 15.416C150.243 16.9653 150.887 18.6173 151.54 20.372C152.193 22.108 152.903 23.984 153.668 26H151.568ZM144.904 8.78C144.195 10.3853 143.504 12.0187 142.832 13.68C142.179 15.3413 141.497 17.1333 140.788 19.056H149.048C148.339 17.1333 147.648 15.3413 146.976 13.68C146.304 12.0187 145.613 10.3853 144.904 8.78ZM167.462 25.496C166.92 25.6453 166.192 25.8133 165.278 26C164.363 26.1867 163.243 26.28 161.918 26.28C160.835 26.28 159.93 26.1213 159.202 25.804C158.474 25.4867 157.886 25.0387 157.438 24.46C156.99 23.8813 156.663 23.1813 156.458 22.36C156.271 21.5387 156.178 20.6333 156.178 19.644V11.524H157.998V19.056C157.998 20.0827 158.072 20.9507 158.222 21.66C158.371 22.3693 158.614 22.948 158.95 23.396C159.286 23.8253 159.715 24.1427 160.238 24.348C160.779 24.5347 161.432 24.628 162.198 24.628C163.056 24.628 163.803 24.5813 164.438 24.488C165.072 24.3947 165.474 24.3107 165.642 24.236V11.524H167.462V25.496ZM183.795 25.552C183.254 25.7387 182.563 25.916 181.723 26.084C180.883 26.252 179.819 26.336 178.531 26.336C177.467 26.336 176.496 26.168 175.619 25.832C174.76 25.4773 174.014 24.9733 173.379 24.32C172.763 23.6667 172.278 22.8733 171.923 21.94C171.587 21.0067 171.419 19.952 171.419 18.776C171.419 17.6747 171.559 16.6667 171.839 15.752C172.138 14.8187 172.567 14.016 173.127 13.344C173.687 12.672 174.368 12.1493 175.171 11.776C175.992 11.4027 176.926 11.216 177.971 11.216C178.923 11.216 179.744 11.356 180.435 11.636C181.144 11.8973 181.658 12.1493 181.975 12.392V4.608L183.795 4.272V25.552ZM181.975 14.156C181.807 14.0253 181.592 13.8853 181.331 13.736C181.088 13.5867 180.799 13.4467 180.463 13.316C180.127 13.1853 179.763 13.0827 179.371 13.008C178.979 12.9147 178.568 12.868 178.139 12.868C177.243 12.868 176.487 13.0267 175.871 13.344C175.274 13.6613 174.788 14.0907 174.415 14.632C174.042 15.1547 173.771 15.78 173.603 16.508C173.435 17.2173 173.351 17.9733 173.351 18.776C173.351 20.68 173.827 22.1453 174.779 23.172C175.731 24.18 176.991 24.684 178.559 24.684C179.455 24.684 180.174 24.6467 180.715 24.572C181.275 24.4787 181.695 24.3853 181.975 24.292V14.156ZM190.431 26H188.611V11.524H190.431V26ZM190.851 7.156C190.851 7.58533 190.72 7.93067 190.459 8.192C190.198 8.43467 189.88 8.556 189.507 8.556C189.134 8.556 188.816 8.43467 188.555 8.192C188.294 7.93067 188.163 7.58533 188.163 7.156C188.163 6.72667 188.294 6.39067 188.555 6.148C188.816 5.88667 189.134 5.756 189.507 5.756C189.88 5.756 190.198 5.88667 190.459 6.148C190.72 6.39067 190.851 6.72667 190.851 7.156ZM207.604 18.776C207.604 19.9147 207.436 20.9507 207.1 21.884C206.782 22.8173 206.325 23.6107 205.728 24.264C205.149 24.9173 204.458 25.4307 203.656 25.804C202.853 26.1587 201.966 26.336 200.996 26.336C200.025 26.336 199.138 26.1587 198.336 25.804C197.533 25.4307 196.833 24.9173 196.236 24.264C195.657 23.6107 195.2 22.8173 194.864 21.884C194.546 20.9507 194.388 19.9147 194.388 18.776C194.388 17.6373 194.546 16.6013 194.864 15.668C195.2 14.7347 195.657 13.9413 196.236 13.288C196.833 12.616 197.533 12.1027 198.336 11.748C199.138 11.3747 200.025 11.188 200.996 11.188C201.966 11.188 202.853 11.3747 203.656 11.748C204.458 12.1027 205.149 12.616 205.728 13.288C206.325 13.9413 206.782 14.7347 207.1 15.668C207.436 16.6013 207.604 17.6373 207.604 18.776ZM205.672 18.776C205.672 16.9653 205.252 15.528 204.412 14.464C203.572 13.3813 202.433 12.84 200.996 12.84C199.558 12.84 198.42 13.3813 197.58 14.464C196.74 15.528 196.32 16.9653 196.32 18.776C196.32 20.5867 196.74 22.024 197.58 23.088C198.42 24.152 199.558 24.684 200.996 24.684C202.433 24.684 203.572 24.152 204.412 23.088C205.252 22.024 205.672 20.5867 205.672 18.776Z" fill="#279AF1"/>
</svg>
